Coordinates
version=1
nRows=6
nColumns=34
inDegrees=yes

Units are S.I. units (second, meters, Newtons, ...)
If the header above contains a line with 'inDegrees', this indicates whether rotational values are in degrees (yes) or radians (no).

endheader
time	pelvis_tilt	pelvis_list	pelvis_rotation	pelvis_tx	pelvis_ty	pelvis_tz	hip_flexion_r	hip_adduction_r	hip_rotation_r	knee_angle_r	ankle_angle_r	subtalar_angle_r	mtp_angle_r	hip_flexion_l	hip_adduction_l	hip_rotation_l	knee_angle_l	ankle_angle_l	subtalar_angle_l	mtp_angle_l	lumbar_extension	lumbar_bending	lumbar_rotation	arm_flex_r	arm_add_r	arm_rot_r	elbow_flex_r	pro_sup_r	arm_flex_l	arm_add_l	arm_rot_l	elbow_flex_l	pro_sup_l
      0.00000000	     18.61233418	     -7.89764180	     -4.18942789	     -0.82571371	      0.45332252	     -0.24988924	     75.21249635	      4.43305693	    -16.44488193	     39.76051622	    -22.54991663	    -32.47225083	      0.00000000	     80.96597394	     -7.73076610	      8.94869161	     60.20817979	      8.12468710	     -9.66446409	      0.00000000	    -64.05630880	      0.67053272	    -10.77212176	    145.21515352	     17.36988761	     45.10229089	     38.45190468	     84.38938736	     87.91348317	    -20.10863123	     14.49716795	     27.71552290	     79.62729515
      0.01666670	      9.87603421	    -10.38431391	     -7.59329968	     -0.81089023	      0.45292886	     -0.24722587	     81.27769232	      7.81337720	    -16.14325235	     39.37517256	    -22.80169392	    -27.78616241	      0.00000000	     87.13251442	     -7.73310034	      8.02016060	     53.19322318	     -4.28742339	    -25.84499359	      0.00000000	    -56.19666871	     -4.30559291	     -9.96338669	    136.29478802	     12.84898508	     36.45797146	     49.64353115	     83.55982616	     86.63948655	    -19.96529557	     12.95140661	     29.83040404	     78.65523528
      0.03333330	      5.28415439	    -11.58987665	     -7.91365618	     -0.81857524	      0.44560352	     -0.25466896	     86.55835320	      6.70724573	    -18.86624850	     43.98910610	    -18.77399344	    -25.21514596	      0.00000000	     90.96569134	     -6.34088543	      8.77530162	     51.01884733	     -8.22095313	    -29.33948280	      0.00000000	    -52.80037494	     -4.75047678	     -8.54122216	    129.80294284	     11.29203578	     30.71417125	     57.53464105	     83.87362506	     84.31478012	    -18.63890434	      9.69377475	     30.68608940	     76.96561630
      0.05000000	      1.95299052	    -13.59663660	     -7.83143210	     -0.80760297	      0.44129937	     -0.25395493	     90.48822694	      6.72087420	    -22.14069071	     47.29406354	    -13.94701983	    -20.57753543	      0.00000000	     95.29398299	     -6.08613402	     10.09313634	     50.12090053	    -10.04112868	    -31.54651655	      0.00000000	    -50.06348596	     -4.20917394	     -6.59427723	    123.52430247	     10.47432504	     27.31310543	     63.07855048	     84.25019031	     78.83266566	    -17.50374779	      3.63633401	     35.12883514	     74.31976669
      0.06666670	      0.43566589	    -15.30081317	     -7.08159993	     -0.81131089	      0.44490271	     -0.25738400	     91.95738063	      6.18859459	    -23.21285211	     49.37101388	     -8.36740807	    -17.29050267	      0.00000000	     96.58791398	     -4.92718382	     10.47827438	     49.22206397	    -10.81603703	    -32.29347548	      0.00000000	    -50.00742422	     -2.68369809	     -5.35402202	    120.08027683	     10.83825178	     28.21513248	     65.58180518	     83.76924766	     75.03087631	    -17.66371771	      0.88557010	     37.42847241	     72.95608308
      0.08333330	     -0.88769741	    -15.97215623	     -7.26951319	     -0.81118444	      0.44259963	     -0.25587798	     93.89870137	      6.25079934	    -23.57504644	     51.63416914	     -1.99849046	    -13.45651607	      0.00000000	     98.45329345	     -4.89557240	     10.93909181	     50.17897176	    -10.93946050	    -30.55374164	      0.00000000	    -49.93583956	     -2.32746941	     -3.40729854	    117.74013637	     11.37504408	     29.01737665	     66.00797832	     82.62472338	     71.67197464	    -17.32443475	     -1.06678770	     38.87638093	     71.88241773
